<?xml version="1.0" encoding="utf-8"?>
<!DOCTYPE svg PUBLIC "-//W3C//DTD SVG 1.1//EN" "http://www.w3.org/Graphics/SVG/1.1/DTD/svg11.dtd">
<svg id="Layer_2" data-name="Layer 2" xmlns="http://www.w3.org/2000/svg" xmlns:xlink="http://www.w3.org/1999/xlink" version="1.1" viewBox="0 0 180.18 215.25">
	<defs>
		<style>
			.head{fill:#eff1f6}
			.eye-mask{fill:#0d1c23}
			.ear{fill:#d8d8d8}
			.mouth{fill:#ccc}
			.antenna-dot{fill:#9e9e9f}
			.eye{fill:#329ed9}
		</style>
	</defs>
	<title>hexbot</title>
	<circle class="head" cx="89.89" cy="125.37" r="89.89" />
	<path class="eye-mask" d="M150 101.76a493.4 493.4 0 0 0-100.17 0s-15 1.5-15.17 9.83 0 24.5 0 24.5-.83 11.17 30.17 14.5c0 0 38.17 7.17 71 0 0 0 16-3.17 23.17-6.17 0 0 6.83-3 7.5-9.33s0-23.83 0-23.83-.86-8.84-16.5-9.5z" transform="translate(-10.78 -6.5)"/>
	<path class="ear" d="M19.92 99.82h-5.34s-8.33 33.76 0 64.1h5.33v-64.1zM181.92 99.82h5.33s8.33 33.76 0 64.1h-5.33v-64.1z" transform="translate(-10.78 -6.5)"/>
	<path class="mouth" d="M132.72 184.13v5.33s-33.76 8.33-64.1 0v-5.33h64.1z" transform="translate(-10.78 -6.5)"/>
	<path class="ear" d="M95.39 37l-4-32.75h-3.83L84.39 37h11z"/>
	<circle class="antenna-dot" cx="89.89" cy="4.25" r="4.25"/>
	<circle class="eye" cx="64.97" cy="117.67" r="6.51">
		<animate attributeType="CSS" attributeName="opacity"
			values="0; 1; 0; 1"
			keyTimes="0; 0.5; 0.8; 1"
			dur="1.5s" repeatCount="indefinite" />
	</circle>
	<circle class="eye" cx="114.81" cy="117.67" r="6.51">
		<animate attributeType="CSS" attributeName="opacity"
			values="0; 1; 0; 1"
			keyTimes="0; 0.5; 0.8; 1"
			dur="1.5s" repeatCount="indefinite" />
	</circle>
</svg>
